<svg width="64px" height="64px" viewBox="-11.04 -11.04 70.08 70.08" fill="none" xmlns="http://www.w3.org/2000/svg" transform="matrix(1, 0, 0, 1, 0, 0)rotate(0)" stroke="#303131"><g id="SVGRepo_bgCarrier" stroke-width="0"><path transform="translate(-11.04, -11.04), scale(4.38)" fill="#303131" d="M9.166.33a2.25 2.25 0 00-2.332 0l-5.25 3.182A2.25 2.25 0 00.5 5.436v5.128a2.25 2.25 0 001.084 1.924l5.25 3.182a2.25 2.25 0 002.332 0l5.25-3.182a2.25 2.25 0 001.084-1.924V5.436a2.25 2.25 0 00-1.084-1.924L9.166.33z" strokewidth="0"></path></g><g id="SVGRepo_tracerCarrier" stroke-linecap="round" stroke-linejoin="round"></g><g id="SVGRepo_iconCarrier"> <rect width="48" height="48" fill="white" fill-opacity="0.01"></rect> <path d="M36 21C36 28.1797 30.1797 34 23 34C15.8203 34 10 28.1797 10 21C10 13.8203 15 11 17 4C25 7.49989 25 18 25 18C25 18 27 12 33 10.5C33.5 16 36 17.9342 36 21Z" stroke="#ffffff" stroke-width="2.208" stroke-linecap="round" stroke-linejoin="round"></path> <path d="M7 36L39 44" stroke="#ffffff" stroke-width="2.208" stroke-linecap="round" stroke-linejoin="round"></path> <path d="M7 44L39 36" stroke="#ffffff" stroke-width="2.208" stroke-linecap="round" stroke-linejoin="round"></path> </g></svg>