<svg fill="#c7cdff" height="40px" width="40px" version="1.1" id="Capa_1" xmlns="http://www.w3.org/2000/svg" xmlns:xlink="http://www.w3.org/1999/xlink" viewBox="0 0 56.76 56.76" xml:space="preserve" stroke="#c7cdff" stroke-width="0.0005676"><g id="SVGRepo_bgCarrier" stroke-width="0"></g><g id="SVGRepo_tracerCarrier" stroke-linecap="round" stroke-linejoin="round" stroke="#CCCCCC" stroke-width="1.02168"></g><g id="SVGRepo_iconCarrier"> <g> <path d="M25.399,25.989c-9.674,0-24.067,1.749-24.067,6.568v0.135c0,13.271,10.796,24.067,24.067,24.067 s24.068-10.797,24.068-24.067v-0.135C49.467,27.738,35.073,25.989,25.399,25.989z M25.399,27.989c1.577,0,3.057,0.041,4.469,0.106 c-0.486,0.231-0.931,0.573-1.306,1.026l1.539,1.277c0.683-0.824,1.778-0.824,2.461,0l1.539-1.277 c-0.281-0.339-0.609-0.599-0.956-0.815c9.425,0.805,14.322,2.972,14.322,4.252c0,1.595-7.579,4.568-22.068,4.568 c-8.241,0-14.239-0.963-17.886-2.086c0.659-0.429,1.491-0.316,2.049,0.358l1.539-1.277c-0.728-0.878-1.711-1.361-2.77-1.361 s-2.042,0.483-2.77,1.361l0.494,0.41c-1.793-0.703-2.724-1.42-2.724-1.973C3.331,30.963,10.91,27.989,25.399,27.989z M25.399,54.76 c-11.221,0-20.507-8.421-21.884-19.274c4.389,2.621,14.506,3.641,21.884,3.641c7.379,0,17.496-1.02,21.885-3.641 C45.906,46.339,36.62,54.76,25.399,54.76z"></path> <path d="M30.562,35.121l1.539,1.277c0.683-0.824,1.778-0.824,2.461,0l1.539-1.277c-0.728-0.878-1.711-1.361-2.77-1.361 S31.29,34.243,30.562,35.121z"></path> <path d="M36.562,34.121l1.539,1.277c0.683-0.824,1.778-0.824,2.461,0l1.539-1.277c-0.728-0.878-1.711-1.361-2.77-1.361 S37.29,33.243,36.562,34.121z"></path> <path d="M44.562,33.398l1.539-1.277c-0.728-0.878-1.711-1.361-2.77-1.361s-2.042,0.483-2.77,1.361l1.539,1.277 C42.783,32.574,43.879,32.574,44.562,33.398z"></path> <path d="M38.562,32.398l1.539-1.277c-0.728-0.878-1.711-1.361-2.77-1.361s-2.042,0.483-2.77,1.361l1.539,1.277 C36.783,31.574,37.879,31.574,38.562,32.398z"></path> <path d="M32.562,33.398l1.539-1.277c-0.728-0.878-1.711-1.361-2.77-1.361s-2.042,0.483-2.77,1.361l1.539,1.277 C30.783,32.574,31.879,32.574,32.562,33.398z"></path> <path d="M26.562,32.398l1.539-1.277c-0.728-0.878-1.711-1.361-2.77-1.361s-2.042,0.483-2.77,1.361l1.539,1.277 C24.783,31.574,25.879,31.574,26.562,32.398z"></path> <path d="M23.562,35.121l1.539,1.277c0.683-0.824,1.778-0.824,2.461,0l1.539-1.277c-0.728-0.878-1.711-1.361-2.77-1.361 S24.29,34.243,23.562,35.121z"></path> <path d="M17.562,35.121l1.539,1.277c0.683-0.824,1.778-0.824,2.461,0l1.539-1.277c-0.728-0.878-1.711-1.361-2.77-1.361 S18.29,34.243,17.562,35.121z"></path> <path d="M14.101,35.398c0.683-0.824,1.778-0.824,2.461,0l1.539-1.277c-0.728-0.878-1.711-1.361-2.77-1.361s-2.042,0.483-2.77,1.361 L14.101,35.398z"></path> <path d="M19.562,32.398l1.539-1.277c-0.728-0.878-1.711-1.361-2.77-1.361s-2.042,0.483-2.77,1.361l1.539,1.277 C17.783,31.574,18.879,31.574,19.562,32.398z"></path> <path d="M11.562,32.398l1.539-1.277c-0.728-0.878-1.711-1.361-2.77-1.361s-2.042,0.483-2.77,1.361l1.539,1.277 C9.783,31.574,10.879,31.574,11.562,32.398z"></path> <path d="M32.064,7.715c-0.227-0.559-0.585-1.073-1.094-1.495c-0.227-0.188-0.391-0.407-0.499-0.64L54.48,1.979L54.183,0 L30.765,3.513L29.693,2.22c-0.549,0.454-0.922,1.015-1.141,1.625l-1.924,0.288c0.095-0.132,0.203-0.26,0.341-0.374L25.693,2.22 c-0.731,0.606-1.169,1.393-1.302,2.249l-2.033,0.305c0.06-0.374,0.266-0.728,0.611-1.015L21.693,2.22 c-0.878,0.728-1.362,1.711-1.362,2.77c0,0.03,0.009,0.058,0.01,0.087L18.39,5.369c-0.036-0.124-0.059-0.251-0.059-0.38 c0-0.452,0.227-0.889,0.638-1.23L17.693,2.22c-0.878,0.728-1.362,1.711-1.362,2.77c0,0.23,0.033,0.455,0.078,0.677L14.183,6 l0.148,0.989l-0.097,0.995l3.946,0.385c0.096,0.198,0.151,0.407,0.151,0.62c0,0.452-0.227,0.889-0.638,1.23 c-0.878,0.728-1.362,1.711-1.362,2.77s0.483,2.042,1.362,2.77c0.412,0.342,0.638,0.778,0.638,1.23s-0.227,0.889-0.638,1.23 c-0.878,0.728-1.362,1.711-1.362,2.77s0.483,2.042,1.362,2.77l1.276-1.539c-0.412-0.342-0.638-0.778-0.638-1.23 s0.227-0.889,0.638-1.23c0.878-0.728,1.362-1.711,1.362-2.77s-0.483-2.042-1.362-2.77c-0.412-0.342-0.638-0.778-0.638-1.23 s0.227-0.889,0.638-1.23c0.878-0.728,1.362-1.711,1.362-2.77c0-0.141-0.031-0.277-0.048-0.415l2.02,0.197 c0.012,0.072,0.027,0.144,0.027,0.218c0,0.452-0.227,0.889-0.638,1.23c-0.878,0.728-1.362,1.711-1.362,2.77s0.483,2.042,1.362,2.77 c0.412,0.342,0.638,0.778,0.638,1.23s-0.227,0.889-0.638,1.23c-0.878,0.728-1.362,1.711-1.362,2.77s0.483,2.042,1.362,2.77 l1.276-1.539c-0.412-0.342-0.638-0.778-0.638-1.23s0.227-0.889,0.638-1.23c0.878-0.728,1.362-1.711,1.362-2.77 s-0.483-2.042-1.362-2.77c-0.412-0.342-0.638-0.778-0.638-1.23s0.227-0.889,0.638-1.23c0.878-0.728,1.362-1.711,1.362-2.77 c0-0.007-0.002-0.013-0.002-0.02l1.981,0.193c-0.05,0.389-0.258,0.76-0.617,1.057c-0.878,0.728-1.362,1.711-1.362,2.77 s0.483,2.042,1.362,2.77c0.412,0.342,0.638,0.778,0.638,1.23s-0.227,0.889-0.638,1.23c-0.878,0.728-1.362,1.711-1.362,2.77 s0.483,2.042,1.362,2.77l1.276-1.539c-0.412-0.342-0.638-0.778-0.638-1.23s0.227-0.889,0.638-1.23 c0.878-0.728,1.362-1.711,1.362-2.77s-0.483-2.042-1.362-2.77c-0.412-0.342-0.638-0.778-0.638-1.23s0.227-0.889,0.638-1.23 c0.775-0.642,1.22-1.487,1.32-2.403l1.917,0.187c-0.106,0.247-0.274,0.479-0.513,0.677c-0.878,0.728-1.362,1.711-1.362,2.77 s0.483,2.042,1.362,2.77c0.412,0.342,0.638,0.778,0.638,1.23s-0.227,0.889-0.638,1.23c-0.878,0.728-1.362,1.711-1.362,2.77 s0.483,2.042,1.362,2.77l1.276-1.539c-0.412-0.342-0.638-0.778-0.638-1.23s0.227-0.889,0.638-1.23 c0.878-0.728,1.362-1.711,1.362-2.77s-0.483-2.042-1.362-2.77c-0.412-0.342-0.638-0.778-0.638-1.23s0.227-0.889,0.638-1.23 c0.666-0.552,1.102-1.25,1.275-2.017l22.989,2.243l0.194-1.99L32.064,7.715z M29.392,7.454l-1.524-0.149 c-0.225-0.398-0.517-0.77-0.899-1.086c-0.038-0.031-0.065-0.067-0.1-0.1l1.592-0.239C28.62,6.463,28.941,6.994,29.392,7.454z M23.387,6.643l1.279-0.192c0.096,0.202,0.219,0.392,0.354,0.577l-1.417-0.138C23.538,6.803,23.461,6.724,23.387,6.643z"></path> </g> </g></svg>