<svg width="40px" height="40px" viewBox="-6.3 -6.3 75.60 75.60" version="1.1" xmlns="http://www.w3.org/2000/svg" xmlns:xlink="http://www.w3.org/1999/xlink" xmlns:sketch="http://www.bohemiancoding.com/sketch/ns" fill="#c5cdf7" stroke="#c5cdf7" transform="rotate(0)matrix(1, 0, 0, 1, 0, 0)"><g id="SVGRepo_bgCarrier" stroke-width="0"></g><g id="SVGRepo_tracerCarrier" stroke-linecap="round" stroke-linejoin="round" stroke="#CCCCCC" stroke-width="2.772"> <title>Pizza-slide</title> <desc>Created with Sketch.</desc> <defs> </defs> <g id="Page-1" stroke-width="1.197" fill="none" fill-rule="evenodd" sketch:type="MSPage"> <g id="Pizza-slide" sketch:type="MSLayerGroup" transform="translate(2.000000, 1.000000)" stroke="#c5cdf7" stroke-width="1.197"> <path d="M0,60 L26.7,0.6 C27.5,-0.2 28.9,-0.2 29.7,0.6 C29.7,0.6 36.8,3.2 46.7,13.2 C56.7,23.2 59.3,30.2 59.3,30.2 C60.1,31 60.2,32.4 59.3,33.2 L0,60 L0,60 Z" id="Shape" sketch:type="MSShapeGroup"> </path> <path d="M23,8.8 C23,8.8 43,15.5 51.2,37" id="Shape" sketch:type="MSShapeGroup"> </path> <circle id="Oval" sketch:type="MSShapeGroup" cx="27.9" cy="18.9" r="2.9"> </circle> <circle id="Oval" sketch:type="MSShapeGroup" cx="28.9" cy="29.9" r="2.9"> </circle> <circle id="Oval" sketch:type="MSShapeGroup" cx="14.9" cy="45.9" r="2.9"> </circle> <circle id="Oval" sketch:type="MSShapeGroup" cx="17.9" cy="33.9" r="2.9"> </circle> <circle id="Oval" sketch:type="MSShapeGroup" cx="26.9" cy="41.9" r="2.9"> </circle> <circle id="Oval" sketch:type="MSShapeGroup" cx="38.9" cy="34.9" r="2.9"> </circle> </g> </g> </g><g id="SVGRepo_iconCarrier"> <title>Pizza-slide</title> <desc>Created with Sketch.</desc> <defs> </defs> <g id="Page-1" stroke-width="1.197" fill="none" fill-rule="evenodd" sketch:type="MSPage"> <g id="Pizza-slide" sketch:type="MSLayerGroup" transform="translate(2.000000, 1.000000)" stroke="#c5cdf7" stroke-width="1.197"> <path d="M0,60 L26.7,0.6 C27.5,-0.2 28.9,-0.2 29.7,0.6 C29.7,0.6 36.8,3.2 46.7,13.2 C56.7,23.2 59.3,30.2 59.3,30.2 C60.1,31 60.2,32.4 59.3,33.2 L0,60 L0,60 Z" id="Shape" sketch:type="MSShapeGroup"> </path> <path d="M23,8.8 C23,8.8 43,15.5 51.2,37" id="Shape" sketch:type="MSShapeGroup"> </path> <circle id="Oval" sketch:type="MSShapeGroup" cx="27.9" cy="18.9" r="2.9"> </circle> <circle id="Oval" sketch:type="MSShapeGroup" cx="28.9" cy="29.9" r="2.9"> </circle> <circle id="Oval" sketch:type="MSShapeGroup" cx="14.9" cy="45.9" r="2.9"> </circle> <circle id="Oval" sketch:type="MSShapeGroup" cx="17.9" cy="33.9" r="2.9"> </circle> <circle id="Oval" sketch:type="MSShapeGroup" cx="26.9" cy="41.9" r="2.9"> </circle> <circle id="Oval" sketch:type="MSShapeGroup" cx="38.9" cy="34.9" r="2.9"> </circle> </g> </g> </g></svg>