<svg fill="#c7c3fe" height="40px" width="40px" version="1.1" id="Layer_1" xmlns="http://www.w3.org/2000/svg" xmlns:xlink="http://www.w3.org/1999/xlink" viewBox="0 0 512.00 512.00" xml:space="preserve" stroke="#c7c3fe" stroke-width="0.0051200099999999995"><g id="SVGRepo_bgCarrier" stroke-width="0"></g><g id="SVGRepo_tracerCarrier" stroke-linecap="round" stroke-linejoin="round" stroke="#CCCCCC" stroke-width="33.792066"></g><g id="SVGRepo_iconCarrier"> <g> <g> <path d="M255.466,114.928c0-7.879,2.851-11.441,6.795-16.372c4.592-5.741,10.307-12.887,10.307-26.388 c0-13.508-5.714-20.656-10.306-26.401c-3.945-4.936-6.796-8.502-6.796-16.389c0-4.427-3.589-8.017-8.017-8.017 s-8.017,3.589-8.017,8.017c0,13.508,5.714,20.656,10.306,26.401c3.945,4.936,6.796,8.502,6.796,16.389 c0,7.878-2.851,11.441-6.795,16.372c-4.592,5.741-10.307,12.885-10.307,26.388c0,13.495,5.716,20.634,10.31,26.372 c3.943,4.925,6.793,8.485,6.793,16.351c0,4.427,3.589,8.017,8.017,8.017s8.017-3.589,8.017-8.017 c0-13.495-5.716-20.635-10.311-26.372C258.314,126.353,255.466,122.795,255.466,114.928z"></path> </g> </g> <g> <g> <path d="M300.859,43.175c-1.787-4.05-6.52-5.885-10.571-4.097c-4.051,1.787-5.884,6.52-4.097,10.571 c3.018,6.839,4.548,14.414,4.548,22.517c0,19.79-8.867,30.959-14.22,37.653c-1.144,1.385-1.831,3.162-1.831,5.1 c0,4.426,3.589,8.016,8.017,8.016c2.545,0,4.814-1.188,6.284-3.038c5.786-7.232,17.783-22.258,17.783-47.73 C306.772,61.82,304.783,52.066,300.859,43.175z"></path> </g> </g> <g> <g> <path d="M235.952,67.683c-2.456-3.683-7.434-4.679-11.117-2.223c-0.949,0.633-1.719,1.432-2.298,2.334 c-5.941,7.445-17.31,22.342-17.31,47.133c0,10.266,1.96,19.949,5.827,28.779c1.318,3.009,4.261,4.804,7.348,4.804 c1.073,0,2.164-0.217,3.211-0.676c4.055-1.775,5.904-6.503,4.128-10.559c-2.973-6.791-4.48-14.309-4.48-22.348 c0-19.871,8.944-31.052,14.29-37.736c0.144-0.181,0.281-0.368,0.409-0.56C237.756,73.938,237.748,70.375,235.952,67.683z"></path> </g> </g> <g> <g> <path d="M503.983,277.93H451.17c-3.606-14.707-16.895-25.653-32.699-25.653c-0.495,0-0.992,0.013-1.49,0.037 c-2.928-12-12.304-21.5-24.234-24.607l91.701-108.36c2.86-3.38,2.439-8.438-0.941-11.298c-3.38-2.86-8.439-2.438-11.298,0.941 L371.443,228.063c-5.568-11.016-16.961-18.542-29.931-18.542c-0.562,0-1.122,0.016-1.681,0.045l68.96-168.567 c1.676-4.098-0.286-8.779-4.385-10.455c-4.098-1.677-8.779,0.288-10.455,4.385l-69.419,169.69 c-6.188-7.457-15.484-12.2-25.775-12.2c-5.855,0-11.453,1.489-16.408,4.295c-6.275-7.942-15.946-12.846-26.348-12.846 s-20.073,4.904-26.348,12.846c-4.954-2.806-10.553-4.295-16.408-4.295c-13.341,0-25.032,7.952-30.412,19.485 c-3.904-1.563-8.084-2.383-12.344-2.383c-13.341,0-25.032,7.952-30.412,19.485c-3.904-1.563-8.084-2.383-12.344-2.383 c-15.818,0-29.123,10.963-32.715,25.691c-0.498-0.025-0.995-0.037-1.49-0.037c-15.804,0-29.091,10.947-32.699,25.653H8.017 c-4.427,0-8.017,3.589-8.017,8.017s3.589,8.017,8.017,8.017h2.267c12.901,50.73,36.302,95.531,69.626,133.24 c27.989,31.671,55.72,49.912,69.76,57.966c6.239,3.579,13.427,5.471,20.788,5.471h171.086c7.36,0,14.549-1.892,20.788-5.471 c14.039-8.054,41.771-26.295,69.76-57.966c33.325-37.708,56.726-82.509,69.626-133.24h2.267c4.427,0,8.017-3.589,8.017-8.017 S508.411,277.93,503.983,277.93z M379.527,243.331c1.535-0.444,3.129-0.674,4.741-0.674c9.65,0,17.515,7.79,17.636,17.412 l-0.009,0.062c-0.059,0.421-0.11,0.843-0.137,1.273c-0.172,2.699,1.028,5.304,3.193,6.926c2.164,1.623,5,2.043,7.544,1.12 c2.113-0.767,4.068-1.141,5.978-1.141c6.837,0,12.765,3.919,15.69,9.62h-83.916L379.527,243.331z M93.528,268.31 c1.91,0,3.865,0.373,5.978,1.141c2.545,0.925,5.381,0.502,7.544-1.12c2.164-1.623,3.365-4.227,3.193-6.926 c-0.028-0.431-0.079-0.852-0.137-1.273l-0.009-0.062c0.12-9.622,7.985-17.412,17.636-17.412c4.346,0,8.559,1.667,11.86,4.696 c2.269,2.081,5.531,2.678,8.393,1.536c2.86-1.143,4.812-3.823,5.024-6.897c0.632-9.217,8.31-16.437,17.48-16.437 c4.346,0,8.559,1.667,11.86,4.696c2.27,2.081,5.532,2.679,8.393,1.536c2.86-1.143,4.812-3.823,5.024-6.897 c0.632-9.217,8.31-16.437,17.48-16.437c4.9,0,9.475,2.024,12.882,5.7c1.895,2.045,4.718,2.96,7.45,2.411 c2.734-0.546,4.987-2.472,5.952-5.089c2.551-6.923,9.172-11.574,16.473-11.574s13.92,4.652,16.473,11.574 c0.964,2.616,3.217,4.543,5.952,5.089c2.735,0.549,5.555-0.367,7.45-2.411c3.408-3.676,7.982-5.7,12.882-5.7 c9.169,0,16.847,7.22,17.48,16.437c0.211,3.073,2.163,5.753,5.024,6.897c2.86,1.143,6.122,0.545,8.393-1.536 c3.302-3.028,7.514-4.696,11.86-4.696c9.169,0,16.847,7.22,17.48,16.437c0.016,0.229,0.06,0.45,0.095,0.674L329.25,277.93H77.838 C80.763,272.227,86.692,268.31,93.528,268.31z M354.352,471.261c-3.815,2.188-8.244,3.345-12.81,3.345H170.458 c-4.565,0-8.995-1.157-12.81-3.345c-23.521-13.494-100.816-65.387-130.791-177.298h458.286 C455.169,405.874,377.873,457.767,354.352,471.261z"></path> </g> </g> <g> <g> <path d="M227.464,246.073l-8.551-8.551c-3.131-3.131-8.207-3.131-11.337,0c-3.131,3.131-3.131,8.207,0,11.337l8.551,8.551 c1.565,1.565,3.617,2.348,5.668,2.348s4.103-0.782,5.668-2.348C230.595,254.279,230.595,249.202,227.464,246.073z"></path> </g> </g> <g> <g> <path d="M278.771,228.97c-3.13-3.13-8.207-3.13-11.337,0l-8.551,8.551c-3.131,3.131-3.131,8.207,0,11.337 c1.565,1.565,3.617,2.348,5.668,2.348s4.104-0.782,5.668-2.348l8.551-8.551C281.901,237.176,281.901,232.1,278.771,228.97z"></path> </g> </g> <g> <g> <path d="M307.307,252.277h-8.551c-4.427,0-8.017,3.589-8.017,8.017c0,4.427,3.589,8.017,8.017,8.017h8.551 c4.427,0,8.017-3.589,8.017-8.017C315.324,255.866,311.734,252.277,307.307,252.277z"></path> </g> </g> <g> <g> <path d="M184.708,246.073c-3.13-3.13-8.207-3.13-11.337,0l-8.551,8.551c-3.131,3.131-3.131,8.207,0,11.337 c1.565,1.565,3.617,2.348,5.668,2.348s4.103-0.782,5.668-2.348l8.551-8.551C187.839,254.279,187.839,249.202,184.708,246.073z"></path> </g> </g> </g></svg>